<svg width="18" height="18" viewBox="0 0 18 18" fill="none" xmlns="http://www.w3.org/2000/svg">
<path d="M3.0362 18C1.46023 18 0.13631 16.7697 0.0213961 15.1996C0.00787683 15.0171 0.00208072 14.8519 0.00111505 14.6936C0.000149389 12.1597 -0.000816276 9.62575 0.00111505 7.09185C0.00111505 6.31738 0.0069114 5.52554 0.0156024 4.73948C0.0349157 3.04764 1.32697 1.75075 3.01979 1.72275C3.09607 1.72178 3.17236 1.72082 3.25058 1.72082C3.25058 1.72082 3.60305 1.72178 3.68223 1.72178C3.773 1.72178 3.84639 1.64839 3.84639 1.55762C3.84639 1.43691 3.84639 1.31813 3.84543 1.20322C3.84446 0.943456 3.84253 0.698176 3.84833 0.452897C3.85316 0.234657 4.00187 0.0531116 4.20949 0.0106224C4.24522 0.00386272 4.28094 0 4.31571 0C4.50884 0 4.67301 0.108155 4.74253 0.281009C4.77247 0.354399 4.78792 0.450001 4.79082 0.57264C4.79661 0.796675 4.79564 1.01878 4.79468 1.25343C4.79468 1.34807 4.79468 1.44367 4.79468 1.54024C4.79468 1.63101 4.86807 1.7044 4.95884 1.7044H8.36088C8.45165 1.7044 8.52504 1.63101 8.52504 1.54024C8.52504 1.43208 8.52504 1.32393 8.52504 1.21577C8.52504 0.972425 8.52311 0.721352 8.52698 0.475107C8.53181 0.208584 8.72204 0.0106222 8.97987 0.00289688H8.99629C9.27247 0.00289688 9.4685 0.201825 9.47236 0.486696C9.47622 0.728112 9.47526 0.9647 9.47429 1.21481C9.47429 1.32393 9.47429 1.43401 9.47429 1.54506C9.47429 1.63584 9.54769 1.70923 9.63846 1.70923H13.0405C13.1313 1.70923 13.2047 1.63584 13.2047 1.54506V1.4456C13.2047 1.37511 13.2047 1.30558 13.2047 1.23605C13.2066 1.14818 13.2047 1.05933 13.2047 0.970494C13.2037 0.763841 13.2027 0.568778 13.2249 0.37661C13.252 0.152576 13.4364 0.00193174 13.6836 0.00193174C13.6962 0.00193174 13.7097 0.00193121 13.7223 0.00289688C13.9569 0.0173819 14.1404 0.207618 14.1481 0.445172C14.1549 0.64603 14.1539 0.851717 14.1529 1.05161C14.1529 1.14045 14.1529 1.22929 14.1529 1.31813V1.55569C14.1529 1.64646 14.2263 1.71985 14.3171 1.71985H14.7401C14.8183 1.71888 14.8946 1.71985 14.9709 1.71985C16.4126 1.74303 17.5936 2.69614 17.9094 4.09249C17.9557 4.29818 17.9789 4.53187 17.9799 4.80805C17.9857 6.82243 17.9886 8.83777 17.9915 10.8521C17.9934 12.1693 17.9953 13.4855 17.9982 14.8027C18.0001 15.5578 17.8186 16.1768 17.4449 16.6954C16.8249 17.5548 15.9916 17.9923 14.968 17.9932C13.1322 17.9961 11.2955 17.9971 9.45981 17.9971C8.26721 17.9971 3.03717 17.9952 3.03717 17.9952L3.0362 18ZM1.14447 7.31781C1.05852 7.31781 0.987061 7.38444 0.980301 7.47039L0.975474 7.52736C0.972577 7.56502 0.96968 7.59399 0.96968 7.62393C0.96968 10.1047 0.969682 12.5845 0.971613 15.0653C0.971613 15.1426 0.979337 15.2189 0.993822 15.2942C1.2082 16.3931 2.01839 17.0498 3.16174 17.0508C4.67301 17.0508 6.18524 17.0508 7.6965 17.0508C10.0749 17.0508 12.4534 17.0508 14.8318 17.0479C15.0491 17.0479 15.248 17.0266 15.4228 16.9851C16.3788 16.7582 17.0219 15.946 17.0229 14.9649C17.0248 13.2064 17.0248 11.447 17.0248 9.68852V7.48004C17.0248 7.38927 16.9514 7.31588 16.8607 7.31588H1.1435L1.14447 7.31781ZM3.22547 2.67103C3.13856 2.67103 3.05359 2.67103 2.96764 2.67393C1.98556 2.70386 1.16667 3.39431 1.02086 4.31652C0.959055 4.70569 0.961956 5.10451 0.964853 5.48981C0.965819 5.65397 0.966782 5.82393 0.96292 5.98906C0.961954 6.0412 0.965817 6.09045 0.96968 6.13777C0.971611 6.15612 0.972575 6.17446 0.973541 6.19281C0.978369 6.27972 1.0508 6.34732 1.1377 6.34732H16.8665C16.9572 6.34732 17.0306 6.27393 17.0306 6.18315C17.0306 6.02382 17.0316 5.86545 17.0335 5.70901C17.0364 5.35751 17.0393 5.02532 17.0277 4.68541C16.9872 3.49185 16.0852 2.65848 14.8337 2.65848C14.6561 2.65848 14.4716 2.67586 14.2852 2.70869C14.207 2.72318 14.15 2.79077 14.15 2.86996C14.15 2.96846 14.15 3.06792 14.15 3.16738C14.15 3.38755 14.152 3.61545 14.1481 3.83852C14.1433 4.12049 13.955 4.32328 13.6914 4.33391H13.6749C13.4248 4.33391 13.2182 4.12243 13.2037 3.85107C13.1979 3.73133 13.1989 3.61255 13.1998 3.48702C13.1998 3.43197 13.2008 3.37597 13.2008 3.32092V2.84678C13.2008 2.75601 13.1274 2.68262 13.0366 2.68262H9.63459C9.54382 2.68262 9.47043 2.75601 9.47043 2.84678C9.47043 2.95494 9.47043 3.06212 9.47139 3.16835C9.47236 3.40976 9.47429 3.63766 9.4685 3.86942C9.46174 4.1147 9.2773 4.3088 9.02912 4.33197C9.01657 4.33294 9.00402 4.33391 8.99243 4.33391C8.77708 4.33391 8.58105 4.17071 8.53566 3.95343C8.52215 3.8897 8.52311 3.81631 8.52408 3.73809C8.52408 3.71491 8.52408 3.69174 8.52408 3.66856C8.52311 3.47253 8.52311 3.27554 8.52408 3.0824V2.85161C8.52408 2.76084 8.45068 2.68745 8.35991 2.68745H4.95788C4.8671 2.68745 4.79371 2.76084 4.79371 2.85161V3.13358C4.79371 3.3412 4.79371 3.54303 4.79371 3.74582C4.79275 4.09828 4.60444 4.33487 4.32537 4.33487C4.18921 4.33294 4.06174 4.27597 3.97483 4.1823C3.87923 4.07994 3.83288 3.93509 3.84253 3.76609C3.85412 3.55751 3.85122 3.35279 3.84833 3.13551C3.84736 3.03798 3.84543 2.93948 3.84543 2.83809C3.84543 2.74732 3.77204 2.67393 3.68127 2.67393C3.59919 2.67393 3.52 2.67393 3.44275 2.67296C3.36936 2.67296 3.29693 2.672 3.22644 2.672L3.22547 2.67103Z" fill="#1F5CB8"/>
<path d="M8.99958 11.1419C8.50323 11.1419 8.09862 10.7411 8.09766 10.2486C8.09766 10.0111 8.19036 9.78609 8.36031 9.61613C8.53124 9.44521 8.75721 9.35058 8.99766 9.34961C9.49497 9.34961 9.89959 9.75133 9.90152 10.2448C9.90152 10.4823 9.80978 10.7073 9.64079 10.8763C9.47083 11.0472 9.24293 11.1419 9.00152 11.1419H9.00055H8.99958Z" fill="#1F5CB8"/>
<path d="M4.73873 14.5505C4.23658 14.5476 3.84549 14.1507 3.84742 13.6466C3.84935 13.1522 4.2501 12.7495 4.74066 12.7495C5.24184 12.7524 5.64259 13.159 5.64163 13.6553C5.6397 14.1488 5.23798 14.5514 4.74452 14.5514H4.73969L4.73873 14.5505Z" fill="#1F5CB8"/>
<path d="M8.99667 14.5505C8.75815 14.5505 8.53315 14.4558 8.36126 14.2849C8.19034 14.114 8.0957 13.889 8.0957 13.6514C8.0957 13.1628 8.50901 12.7505 8.99667 12.7495C9.4853 12.7495 9.89763 13.1618 9.8986 13.6505C9.8986 13.888 9.80493 14.113 9.63401 14.284C9.46308 14.4549 9.23616 14.5495 8.99764 14.5495H8.99667V14.5505Z" fill="#1F5CB8"/>
<path d="M13.2487 14.5505C12.7533 14.5456 12.3526 14.1391 12.3555 13.6447C12.3584 13.1512 12.7611 12.7495 13.2526 12.7495C13.7615 12.7534 14.1516 13.1522 14.1497 13.6572C14.1478 14.1497 13.747 14.5505 13.2574 14.5505H13.2487Z" fill="#1F5CB8"/>
<path d="M4.73777 11.1419C4.49635 11.1419 4.27135 11.0482 4.10525 10.8812C3.93819 10.7122 3.84645 10.4862 3.84742 10.2419C3.84935 9.74167 4.24334 9.34961 4.74452 9.34961C4.98787 9.34961 5.21287 9.44425 5.38186 9.6142C5.55085 9.78416 5.64356 10.0101 5.64259 10.2506C5.64066 10.7421 5.23605 11.1419 4.74163 11.1419H4.73873H4.73777Z" fill="#1F5CB8"/>
<path d="M13.2564 11.1419C12.761 11.1419 12.3574 10.7421 12.3555 10.2506C12.3555 10.0101 12.4472 9.78416 12.6162 9.6142C12.7852 9.44425 13.0102 9.34961 13.2506 9.34961C13.7547 9.34961 14.1487 9.74167 14.1506 10.2419C14.1506 10.4852 14.0608 10.7122 13.8938 10.8802C13.7277 11.0482 13.5017 11.1409 13.2593 11.1419H13.2564Z" fill="#1F5CB8"/>
</svg>
