<svg width="27" height="22" viewBox="0 0 27 22" fill="none" xmlns="http://www.w3.org/2000/svg">
<path d="M17.5777 11.0021C17.5777 13.3948 15.6155 15.3283 13.1873 15.3283C10.7591 15.3283 8.79688 13.3948 8.79688 11.0021C8.79688 8.60932 10.7591 6.67578 13.1873 6.67578C15.6155 6.67578 17.5777 8.60932 17.5777 11.0021Z" stroke="white" stroke-width="2" stroke-linecap="round" stroke-linejoin="round"/>
<path d="M13.1875 21C17.5166 21 21.5513 18.4864 24.3597 14.136C25.4634 12.432 25.4634 9.56797 24.3597 7.86405C21.5513 3.51359 17.5166 1 13.1875 1C8.85842 1 4.82368 3.51359 2.0153 7.86405C0.911567 9.56797 0.911567 12.432 2.0153 14.136C4.82368 18.4864 8.85842 21 13.1875 21Z" stroke="white" stroke-width="2" stroke-linecap="round" stroke-linejoin="round"/>
</svg>
