<svg width="21" height="22" viewBox="0 0 21 22" fill="none" xmlns="http://www.w3.org/2000/svg">
<path d="M10.5583 12.4329C10.9681 12.4329 11.3739 12.3522 11.7525 12.1954C12.1311 12.0385 12.4752 11.8086 12.765 11.5189C13.0547 11.2291 13.2846 10.885 13.4414 10.5064C13.5983 10.1278 13.679 9.72198 13.679 9.31216C13.679 8.90233 13.5983 8.49652 13.4414 8.1179C13.2846 7.73927 13.0547 7.39524 12.765 7.10545C12.4752 6.81566 12.1311 6.58579 11.7525 6.42896C11.3739 6.27213 10.9681 6.19141 10.5583 6.19141C9.73058 6.19141 8.9368 6.5202 8.35155 7.10545C7.76629 7.69071 7.4375 8.48448 7.4375 9.31216C7.4375 10.1398 7.76629 10.9336 8.35155 11.5189C8.9368 12.1041 9.73058 12.4329 10.5583 12.4329Z" stroke="white" stroke-width="2"/>
<path d="M2.18031 7.49156C4.15079 -1.17052 16.9839 -1.16052 18.9443 7.50157C20.0946 12.5828 16.9339 16.8838 14.1632 19.5445C13.195 20.4782 11.9024 21 10.5573 21C9.21225 21 7.91962 20.4782 6.95146 19.5445C4.1908 16.8838 1.03004 12.5728 2.18031 7.49156Z" stroke="white" stroke-width="2"/>
</svg>
