<svg width="134" height="42" viewBox="0 0 134 42" fill="none" xmlns="http://www.w3.org/2000/svg">
<path fill-rule="evenodd" clip-rule="evenodd" d="M63.189 3.72674C63.4809 3.29204 63.8857 3.06937 64.4031 3.06832C64.7409 3.06875 65.0599 3.10765 65.3603 3.21355C65.6624 3.32006 65.9551 3.43626 66.2572 3.5815L66.9275 1.81924C66.1344 1.43194 65.3037 1.23828 64.4257 1.23828C63.6232 1.23828 62.9341 1.41257 62.3393 1.76115C61.7445 2.10973 61.2914 2.61323 60.9798 3.26197C60.6683 3.91071 60.5078 4.66596 60.5078 5.52772C60.5078 6.90267 60.8288 7.95808 61.4802 8.6746C62.1316 9.39112 63.0662 9.75907 64.2841 9.75907C65.1432 9.75907 65.9079 9.61382 66.5781 9.30398V7.40617C66.2383 7.55141 65.8984 7.6676 65.568 7.77411C65.2376 7.88062 64.8883 7.92903 64.5295 7.92903C63.3494 7.92903 62.7547 7.13505 62.7547 5.5374C62.7547 4.76279 62.8963 4.16246 63.189 3.72674ZM57.5436 9.6533L57.1471 8.09439H54.5226L54.1167 9.6533H51.7188L54.3527 1.32617H57.2698L59.9415 9.6533H57.5531H57.5436ZM56.3447 4.89909L56.6915 6.25467H54.9758C55.2947 5.03714 55.4972 4.18623 55.6068 3.72595L55.6068 3.72594L55.6272 3.64034C55.7134 3.27837 55.7671 2.99659 55.8045 2.80054L55.8045 2.80049L55.8046 2.80015L55.8254 2.69143C55.8632 2.90445 55.9387 3.25303 56.052 3.72748L56.0614 3.76664L56.0614 3.76669C56.1705 4.22383 56.262 4.60723 56.3447 4.89909ZM43.0173 1.35352H44.9526V4.91675C44.9526 5.29438 44.9243 6.04963 44.8676 7.18251H44.9148L48.1435 1.35352H50.8435V9.6516H48.9082V6.17551C48.9082 5.65264 48.946 4.85866 49.0121 3.81292H48.9649L45.7078 9.64192H43.0173V1.35352ZM42.5469 18.8984L44.6993 16.1582L46.2476 17.0005L44.7465 18.9661L46.2476 20.9414L44.6993 21.7741L42.5469 19.0436V18.8984ZM45.7284 18.8984L47.8714 16.1582L49.4385 17.0005L47.9186 18.9661L49.4385 20.9414L47.8714 21.7741L45.7284 19.0436V18.8984ZM51.9552 15.821C52.3234 15.7241 52.6443 15.6757 52.9087 15.6757H52.9181C53.3996 15.6757 53.7772 15.8113 54.0699 16.0824C54.3625 16.3535 54.5136 16.7505 54.5514 17.254H51.3226V19.055H54.5514C54.523 19.5295 54.3625 19.8877 54.0888 20.1395C53.815 20.3912 53.4279 20.5171 52.937 20.5171C52.1062 20.5171 51.2566 20.3428 50.3786 19.9942V21.8824C51.1244 22.2019 51.9835 22.3568 52.937 22.3568C54.2209 22.3568 55.1933 21.9889 55.8636 21.2627C56.5339 20.5365 56.8643 19.4229 56.8643 18.077C56.8643 16.7312 56.5339 15.6854 55.8542 14.9495C55.1744 14.2136 54.2209 13.8457 52.9936 13.8457C52.5594 13.8457 52.1251 13.8844 51.7003 13.9716C51.2754 14.0587 50.8129 14.2136 50.3125 14.4363L50.945 16.1889C51.2471 16.034 51.587 15.9178 51.9552 15.821ZM64.4734 22.2399H62.3115V17.4663H61.037C60.9143 18.8509 60.7632 19.8579 60.5744 20.5067C60.3856 21.1554 60.1401 21.6299 59.8097 21.9203C59.4793 22.2108 59.045 22.3561 58.4975 22.3561C58.1104 22.3561 57.7894 22.298 57.5156 22.1818V20.526C57.6384 20.5938 57.7988 20.6325 58.0065 20.6325C58.1765 20.6325 58.3086 20.5454 58.4125 20.3711C58.5163 20.1968 58.6107 19.916 58.6863 19.5287C58.7618 19.1414 58.8373 18.6476 58.9034 18.0376C58.9695 17.4276 59.0261 16.6917 59.0922 15.8105H64.4734V22.2399ZM66.556 21.4954C67.1414 22.0666 67.9438 22.3474 68.9917 22.3474L69.0012 22.3571C69.5015 22.3571 69.9358 22.3184 70.2945 22.2506C70.6533 22.1828 71.0026 22.057 71.3424 21.8827V20.285C70.9648 20.4593 70.625 20.5949 70.304 20.6626C69.983 20.7304 69.6337 20.7692 69.2561 20.7692C68.8312 20.7692 68.5103 20.6626 68.2648 20.4593C68.0193 20.256 67.8966 19.9752 67.8777 19.6169H71.7484V18.6293C71.7484 17.6804 71.4935 16.9542 70.9743 16.4507C70.455 15.9472 69.7753 15.6954 68.784 15.6954C67.7928 15.6954 67.0281 15.9859 66.49 16.5669C65.9518 17.1478 65.6875 18.0096 65.6875 19.065C65.6875 20.1204 65.9707 20.9241 66.556 21.4954ZM68.227 17.448C68.397 17.2834 68.6141 17.2059 68.869 17.2059V17.1962C69.1428 17.1962 69.3694 17.2931 69.5298 17.477C69.6903 17.661 69.7847 17.9128 69.7847 18.2226H67.9249C67.9533 17.874 68.0571 17.6126 68.227 17.448ZM77.3743 15.8105H79.7533L77.412 18.8897L79.9421 22.2399H77.4687L75.1463 18.9768V22.2399H72.9844V15.8105H75.1463V18.9284L77.3743 15.8105ZM84.37 17.4565H86.4281V15.8008H80.1406V17.4565H82.2081V22.2301H84.37V17.4565ZM91.2183 22.3474C90.8973 22.3474 90.6141 22.2893 90.3687 22.1828C90.1232 22.0763 89.8683 21.8827 89.6228 21.6019H89.519C89.5851 22.0473 89.6228 22.3281 89.6228 22.4443V25.0295H87.4609V15.8116H89.2169L89.519 16.625H89.6228C90.0288 16.0053 90.5763 15.6954 91.2844 15.6954C91.9924 15.6954 92.5211 15.9859 92.9176 16.5765C93.3141 17.1672 93.5124 17.9805 93.5124 19.0069C93.5124 20.0333 93.3047 20.8563 92.8988 21.4566C92.4928 22.057 91.9264 22.3474 91.2278 22.3474H91.2183ZM90.4914 17.4383C90.1704 17.4383 89.9533 17.5545 89.8211 17.7869C89.6889 18.0193 89.6228 18.3678 89.6134 18.8229V18.9972C89.6134 19.5491 89.6889 19.9461 89.8305 20.1979C89.9721 20.4496 90.1987 20.5658 90.5103 20.5658C90.784 20.5658 90.9917 20.4399 91.1145 20.1979C91.2372 19.9558 91.3033 19.5491 91.3033 18.9875C91.3033 18.4259 91.2372 18.0386 91.1145 17.7966C90.9917 17.5545 90.784 17.4383 90.4914 17.4383ZM99.8971 21.4663C100.454 20.8757 100.728 20.0623 100.728 19.0069H100.737C100.737 18.3388 100.605 17.7578 100.35 17.2543C100.095 16.7508 99.7272 16.3732 99.2552 16.1021C98.7831 15.831 98.2356 15.6954 97.6219 15.6954C96.6212 15.6954 95.8565 15.9859 95.2995 16.5669C94.7425 17.1478 94.4688 17.9805 94.4688 19.0069C94.4688 20.0333 94.7425 20.8466 95.309 21.4469C95.8754 22.0473 96.5929 22.3474 97.5842 22.3474C98.5754 22.3474 99.3401 22.057 99.8971 21.4663ZM96.8856 20.2657C96.7443 19.976 96.6688 19.5612 96.6684 19.0116C96.6688 18.4622 96.735 18.0475 96.8856 17.7675C97.0366 17.4867 97.2632 17.3512 97.603 17.3512C97.9429 17.3512 98.1789 17.4867 98.3205 17.7675C98.4621 18.0483 98.5282 18.455 98.5282 19.0069C98.5282 19.5588 98.4527 19.9752 98.3205 20.2657C98.1884 20.5561 97.9524 20.7014 97.6125 20.7014C97.2726 20.7014 97.0272 20.5561 96.8856 20.2657ZM104.123 15.8105V18.1247H105.841V15.8105H108.003V22.2399H105.841V19.7805H104.123V22.2399H101.961V15.8105H104.123ZM111.662 18.1247V15.8105H109.5V22.2399H111.662V19.7805H113.38V22.2399H115.542V15.8105H113.38V18.1247H111.662ZM119.193 15.8105V18.1247H119.401C120.487 18.1247 121.28 18.2796 121.761 18.5895C122.242 18.8993 122.488 19.4028 122.488 20.1097C122.488 20.8165 122.252 21.3878 121.789 21.7267C121.327 22.0656 120.609 22.2399 119.656 22.2399H117.031V15.8105H119.193ZM120.326 20.2065C120.326 19.9838 120.269 19.8192 120.147 19.7224C120.024 19.6255 119.826 19.5771 119.542 19.5771H119.203V20.7875H119.571C120.081 20.7875 120.335 20.5938 120.335 20.2065H120.326ZM125.339 22.2399H123.177V15.8105H125.339V22.2399ZM128.77 17.4274V15.8104H126.844V22.2397H129.242L131.734 18.3376C131.687 19.1703 131.658 19.8868 131.658 20.4969V22.2397H133.584V15.8104H131.196L128.694 19.7416C128.711 19.2965 128.725 18.9239 128.737 18.6243L128.737 18.6199L128.737 18.6124L128.738 18.608C128.758 18.0772 128.77 17.7796 128.77 17.7179V17.4274ZM128.316 14.6775C128.751 15.0261 129.412 15.2004 130.29 15.2004C131.961 15.2004 132.876 14.4839 133.027 13.0412H131.196C131.149 13.748 130.847 14.0966 130.29 14.0966C129.978 14.0966 129.761 14.0094 129.619 13.8448C129.478 13.6802 129.402 13.4091 129.383 13.0412H127.58C127.637 13.7771 127.882 14.329 128.316 14.6775ZM42.1188 28.3965H44.394L45.4514 32.0856C45.4986 32.2793 45.5363 32.5116 45.5552 32.7828H45.6024C45.6307 32.5213 45.6779 32.2889 45.7346 32.0953L46.8203 28.3965H49.0294L46.5559 35.2325C46.2349 36.1039 45.8479 36.7139 45.3853 37.0722C44.9227 37.4305 44.3185 37.6144 43.5727 37.6144C43.2895 37.6144 42.9874 37.5854 42.6853 37.5176V35.7747C42.8835 35.8231 43.1006 35.8425 43.3555 35.8425C43.5444 35.8425 43.7143 35.8038 43.8559 35.7263C43.9975 35.6488 44.1297 35.5423 44.2335 35.4068C44.3374 35.2712 44.4507 35.0388 44.5734 34.729L42.1094 28.3965H42.1188ZM51.9588 30.7107V28.3965H49.7969V34.8258H51.9588V32.3664H53.677V34.8258H55.8389V28.3965H53.677V30.7107H51.9588ZM59.2384 28.3965V30.0135V30.304C59.2384 30.3663 59.2267 30.6688 59.2058 31.2091L59.2057 31.211L59.2056 31.2141L59.2054 31.2183C59.1939 31.5165 59.1795 31.8864 59.1629 32.3277L61.6646 28.3965H64.0531V34.8258H62.1272V33.0829C62.1272 32.4729 62.1556 31.7564 62.2028 30.9237L59.7104 34.8258H57.3125V28.3965H59.2384ZM71.3779 30.9818C71.5951 30.7397 71.6989 30.4299 71.6989 30.0522C71.6989 29.4906 71.4723 29.0743 71.0286 28.8032C70.5849 28.532 69.8958 28.3965 68.9895 28.3965H65.5625V34.8258H68.98C70.9248 34.8258 71.8972 34.2158 71.8972 32.9861C71.8972 32.5697 71.7839 32.2308 71.5384 31.9694C71.293 31.708 70.9531 31.5434 70.5 31.495V31.4465C70.8681 31.3788 71.1608 31.2238 71.3779 30.9818ZM68.9517 29.8392C69.3482 29.8392 69.5465 30.0038 69.5465 30.3427V30.3524C69.5465 30.4879 69.4898 30.5945 69.3765 30.6816C69.2632 30.7687 69.0933 30.8075 68.8667 30.8075H67.7244V29.8392H68.9517ZM69.4993 32.3277C69.6314 32.4148 69.6975 32.56 69.6975 32.7634C69.6975 33.1604 69.4332 33.3637 68.9045 33.3637H67.7244V32.2018H68.9234C69.1783 32.2018 69.3671 32.2405 69.4993 32.3277ZM76.1714 34.9333C75.1235 34.9333 74.321 34.6525 73.7357 34.0812C73.1504 33.5099 72.8672 32.7062 72.8672 31.6508C72.8672 30.5954 73.1315 29.7337 73.6696 29.1527C74.2078 28.5717 74.9725 28.2812 75.9637 28.2812C76.955 28.2812 77.6347 28.533 78.1539 29.0365C78.6732 29.54 78.9281 30.2662 78.9281 31.2151V32.2027H75.0574C75.0763 32.561 75.199 32.8418 75.4445 33.0451C75.6899 33.2485 76.0109 33.355 76.4357 33.355C76.8134 33.355 77.1627 33.3163 77.4837 33.2485C77.8046 33.1807 78.1445 33.0451 78.5221 32.8709V34.4685C78.1823 34.6428 77.833 34.7687 77.4742 34.8364C77.1155 34.9042 76.6812 34.943 76.1808 34.943L76.1714 34.9333ZM76.0487 29.7918C75.7938 29.7918 75.5766 29.8692 75.4067 30.0338C75.2368 30.1984 75.1329 30.4599 75.1046 30.8084H76.9644C76.9644 30.4986 76.87 30.2468 76.7095 30.0629C76.549 29.8789 76.3225 29.7821 76.0487 29.7821V29.7918ZM83.064 34.7687C83.3094 34.8752 83.5926 34.9333 83.9136 34.9333H83.9231C84.6217 34.9333 85.1881 34.6428 85.5941 34.0425C86 33.4421 86.2077 32.6191 86.2077 31.5927C86.2077 30.5664 86.0094 29.753 85.6129 29.1624C85.2164 28.5717 84.6878 28.2812 83.9797 28.2812C83.2717 28.2812 82.7241 28.5911 82.3181 29.2108H82.2143L81.9122 28.3974H80.1562V37.6154H82.3181V35.0301C82.3181 34.9139 82.2804 34.6331 82.2143 34.1877H82.3181C82.5636 34.4685 82.8185 34.6622 83.064 34.7687ZM82.5164 30.3727C82.6486 30.1403 82.8657 30.0241 83.1867 30.0241C83.4794 30.0241 83.687 30.1403 83.8098 30.3824C83.9325 30.6245 83.9986 31.0118 83.9986 31.5734C83.9986 32.135 83.9325 32.5416 83.8098 32.7837C83.687 33.0258 83.4794 33.1517 83.2056 33.1517C82.894 33.1517 82.6675 33.0355 82.5258 32.7837C82.3842 32.532 82.3087 32.135 82.3087 31.5831V31.4088C82.3182 30.9537 82.3842 30.6051 82.5164 30.3727ZM90.2967 34.9332C89.2677 34.9332 88.4936 34.6524 87.9649 34.0812C87.4362 33.5099 87.1719 32.6965 87.1719 31.6314C87.1719 30.5663 87.4551 29.7336 88.031 29.1527C88.6069 28.5717 89.4188 28.2715 90.4667 28.2715C91.1936 28.2715 91.8733 28.4361 92.5153 28.7557L91.8828 30.392C91.6184 30.2759 91.3824 30.179 91.1558 30.1112C90.9293 30.0435 90.7027 30.0047 90.4667 30.0047C90.1174 30.0047 89.8436 30.1403 89.6548 30.4211C89.466 30.7019 89.3715 31.0989 89.3715 31.6024C89.3715 32.6288 89.7397 33.1419 90.4855 33.1419C91.1181 33.1419 91.7317 32.9483 92.3076 32.5707V34.3329C91.7506 34.7105 91.0803 34.9042 90.2967 34.9042V34.9332ZM95.4728 30.0135V28.3965H93.5469V34.8258H95.9448L98.4371 30.9237C98.3899 31.7564 98.3616 32.4729 98.3616 33.0829V34.8258H100.287V28.3965H97.899L95.3972 32.3277C95.414 31.8838 95.4284 31.5121 95.44 31.213L95.4401 31.2098L95.4401 31.209C95.4611 30.6688 95.4728 30.3662 95.4728 30.304V30.0135ZM107.584 30.0464H105.526V34.8199H103.364V30.0464H101.297V28.3906H107.584V30.0464ZM109.204 34.0812C109.79 34.6525 110.592 34.9333 111.64 34.9333L111.65 34.943C112.15 34.943 112.584 34.9042 112.943 34.8364C113.302 34.7687 113.651 34.6428 113.991 34.4685V32.8709C113.613 33.0451 113.273 33.1807 112.952 33.2485C112.631 33.3163 112.282 33.355 111.905 33.355C111.48 33.355 111.159 33.2485 110.913 33.0451C110.668 32.8418 110.545 32.561 110.526 32.2027H114.397V31.2151C114.397 30.2662 114.142 29.54 113.623 29.0365C113.103 28.533 112.424 28.2812 111.432 28.2812C110.441 28.2812 109.677 28.5717 109.138 29.1527C108.6 29.7337 108.336 30.5954 108.336 31.6508C108.336 32.7062 108.619 33.5099 109.204 34.0812ZM110.875 30.0338C111.045 29.8692 111.263 29.7918 111.517 29.7918V29.7821C111.791 29.7821 112.018 29.8789 112.178 30.0629C112.339 30.2468 112.433 30.4986 112.433 30.8084H110.573C110.602 30.4599 110.706 30.1984 110.875 30.0338ZM121.42 30.0464H119.362V34.8199H117.2V30.0464H115.133V28.3906H121.42V30.0464ZM123.675 34.3738L125.818 31.6433V31.498L123.675 28.7578L122.117 29.6002L123.618 31.5658L122.117 33.5411L123.675 34.3738ZM126.866 34.3738L129.009 31.6433V31.498L126.866 28.7578L125.289 29.6002L126.809 31.5658L125.289 33.5411L126.866 34.3738Z" fill="white"/>
<path d="M34.2129 0.803665H0.821336V26.2789V26.5597V26.6759V26.7146C0.821336 30.1132 2.79443 33.5796 5.95704 36.1456C8.95917 38.5856 13.0281 40.2123 17.5124 40.2123H17.7484C22.2799 40.1542 26.4055 38.3242 29.3982 35.7486C32.372 33.1826 34.2129 29.8808 34.2129 26.8211C34.2129 26.7049 34.2129 26.7533 34.2129 26.7146V26.6759V26.2789V0.803665ZM0.405948 0H35.0342V26.8017C35.0342 26.8017 35.0342 26.8114 35.0342 26.8308C35.0342 26.8598 35.0342 26.8889 35.0342 26.9179V27.0825C34.9398 30.2972 33.0139 33.7152 29.9457 36.3586C26.8209 39.0601 22.5159 40.9579 17.7673 41.0256H17.5218C12.8393 41.0256 8.58154 39.3215 5.43781 36.7653C2.19967 34.1316 0.14161 30.5974 0 27.0825V0H0.405948Z" fill="white"/>
<path fill-rule="evenodd" clip-rule="evenodd" d="M27.6834 22.0484C30.1946 21.0511 32.5359 19.3856 33.0646 15.2318C32.5642 17.2845 31.4785 18.4174 30.1096 19.0467C28.6463 19.7148 26.8715 19.8117 25.1627 19.831C26.3145 20.3152 27.0981 21.0123 27.674 22.0484M14.5987 4.46458H15.5333V4.68728H15.8259V5.4038C15.6371 5.48126 15.505 5.66523 15.505 5.87825C15.505 6.10096 15.656 6.29461 15.8637 6.36239H15.8732C16.1658 6.36239 16.3924 6.13 16.3924 5.8492V5.83952V5.82016C16.3924 5.82016 16.3924 5.81047 16.3924 5.80079C16.3924 5.79111 16.3924 5.78143 16.3924 5.77174V5.76206V5.74269V5.73301C16.3641 5.64587 16.3263 5.57809 16.2602 5.51999V5.51031C16.2602 5.51031 16.2508 5.50063 16.2413 5.50063C16.2413 5.50063 16.2319 5.50063 16.2225 5.49094C16.2225 5.49094 16.2036 5.49094 16.2036 5.48126V5.3457C16.2036 4.92935 16.5812 4.37743 17.0155 4.35807L17.8179 4.3387L16.6756 7.2532H13.4186L12.2763 4.34838H13.0315C13.4658 4.36775 13.8434 4.91966 13.8434 5.3457V5.48126C13.7396 5.52967 13.6546 5.60714 13.598 5.71365V5.72333V5.74269V5.75238V5.76206C13.598 5.76206 13.5885 5.80079 13.5791 5.82016C13.5791 5.83952 13.5791 5.8492 13.5791 5.86857C13.5791 5.86857 13.5791 5.88794 13.5791 5.89762V5.9073C13.5791 6.19778 13.8151 6.43017 14.0983 6.43017H14.1077H14.1266C14.3438 6.37207 14.5043 6.16873 14.5043 5.93635C14.5043 5.72333 14.3721 5.53936 14.1833 5.4619V4.74538H14.4759V4.52267L14.5987 4.46458ZM5.46012 14.4281C5.80943 14.5055 6.12097 14.6702 6.3853 14.8929L9.0098 16.4324L9.58568 18.5142H9.85946C10.1332 15.0187 13.0787 12.2592 16.6945 12.1623L16.5529 11.8138L12.9088 11.8331L12.1724 9.95467C13.6735 10.1193 16.7889 12.0849 15.7976 9.50927H12.0025L11.3228 7.71797C13.2392 7.6986 15.4106 7.45653 17.3081 7.71797L17.5441 7.7567C19.5739 8.14401 21.1033 9.84816 21.1033 11.988C21.1033 13.5566 20.1875 15.3092 18.8375 16.2291V16.4227C20.6407 16.0161 22.6987 14.5443 22.8781 13.7212C22.6138 13.6244 21.9812 13.2662 21.9907 13.2274C21.2826 12.7336 20.9805 11.746 21.1505 11.0004C21.3204 10.2548 21.6697 9.89658 22.1795 9.59641C22.5288 9.42212 22.8498 9.31561 23.2274 9.28657L32.7058 7.9794C32.753 8.28925 32.7813 8.60878 32.8002 8.92831C33.074 14.5927 28.5991 19.405 22.8026 19.6664C20.82 19.7536 18.2616 18.6885 17.3648 16.8584C17.3176 16.8584 17.2704 16.8778 17.2232 16.8778C16.8833 16.9165 16.5623 16.9746 16.2602 17.0521C15.9581 18.2818 18.5354 19.2404 21.5281 19.7052L21.0466 20.383C21.6131 20.2087 22.2173 20.1118 22.8403 20.1118C26.1257 20.1118 28.788 22.7165 28.788 25.9215C28.788 29.1264 26.1257 31.7311 22.8403 31.7311C19.555 31.7311 16.8927 29.1264 16.8927 25.9215C16.8927 25.5923 16.9211 25.2727 16.9777 24.9532L17.1854 24.9822L20.7917 25.2243C20.6124 25.5148 20.5085 25.844 20.5085 26.2023C20.5085 27.2383 21.3676 28.0904 22.4344 28.0904C23.5012 28.0904 24.3603 27.248 24.3603 26.2023C24.3603 25.1565 23.5201 24.3432 22.4816 24.3238V24.3045L22.2361 24.3335C22.2173 24.3335 22.1889 24.3335 22.1701 24.3335L19.0641 24.6918C17.7046 24.9048 16.534 24.9919 15.5333 24.9629L11.2378 30.6854L10.6997 29.3007C7.66923 29.049 8.71714 30.4239 9.39687 30.9855C9.46295 31.0436 9.46295 31.2663 9.39687 31.3147C8.28287 31.2276 7.31049 30.3561 7.31049 29.2233C7.31049 28.0904 8.27343 27.1124 9.47239 27.1124C10.2654 27.1124 10.964 27.5288 11.3416 28.1582L13.2864 22.1549H12.9749L11.7948 23.8106C11.0962 23.1038 10.5581 22.2517 10.2182 21.3028L6.92342 17.3135C6.78181 17.6234 6.57412 17.8945 6.30034 18.0978L5.63949 16.3937C4.18563 16.3259 3.28877 16.6648 4.03458 17.7493H4.34613L4.30836 17.2167H5.22411L5.0825 19.0855V19.0952V19.1242H4.44997V18.9983L4.40277 18.398C3.57199 18.1075 2.77898 17.4685 2.77898 16.4421C2.77898 15.6578 3.32654 14.8638 4.10067 14.5152L3.67584 9.03482L2.65625 7.76638H4.38389C4.3178 7.06923 4.54438 6.30429 4.95977 5.69428C4.5727 5.76206 4.2234 5.95571 3.88353 6.51731C3.65696 5.31666 4.68599 3.76742 6.10208 3.99981C7.51818 4.23219 7.38601 3.8352 8.12238 3.29297C8.06574 3.73837 8.0563 4.19346 7.96189 4.58077C9.41575 4.73569 9.34967 4.21283 10.2843 3.53504C10.1144 4.94871 10.2748 6.37207 8.50001 6.77874C6.88566 7.14669 5.67726 6.22683 4.56326 7.77606H6.86678L5.84719 9.03482L5.4318 14.3894L5.46012 14.4281Z" fill="white"/>
<path fill-rule="evenodd" clip-rule="evenodd" d="M12.414 10.1929C11.215 9.39895 10.7713 10.3382 9.66678 10.5609C8.50558 10.7933 8.20348 9.91213 7.70312 9.12783C8.51502 9.29244 8.57166 9.67006 9.62902 8.95354C10.6864 8.2467 12.1308 9.12783 12.414 10.1929Z" fill="white"/>
<path d="M21.7173 34.9569L21.7456 34.6567H21.7268L21.604 34.9085L21.2264 35.3829L21.047 35.5185L21.2736 35.4894H21.7079V34.9472L21.7173 34.9569ZM22.5481 35.8671H22.1516V36.5545H21.7173V35.8671H20.6222V35.6056L21.7645 34.0661H22.1516V35.4991H22.5481V35.8671ZM18.4037 35.3151C18.4037 35.6056 18.432 35.8283 18.4981 35.9833C18.5641 36.1382 18.668 36.2156 18.8096 36.2156C18.9512 36.2156 19.0551 36.1479 19.1211 36.0026C19.1872 35.8574 19.225 35.6347 19.225 35.3151C19.225 35.0343 19.1967 34.8116 19.1306 34.6567C19.0645 34.5018 18.9607 34.4243 18.8096 34.4243C18.6586 34.4243 18.5641 34.5018 18.4981 34.647C18.432 34.7923 18.4037 35.015 18.4037 35.3248V35.3151ZM17.9316 35.3151C17.9316 34.8794 18.0071 34.5599 18.1582 34.3469C18.3093 34.1339 18.5264 34.0273 18.8096 34.0273C19.1117 34.0273 19.3383 34.1339 19.4799 34.3372C19.6215 34.5405 19.697 34.8697 19.697 35.3055C19.697 35.7412 19.6215 36.0607 19.4705 36.2737C19.3194 36.4868 19.1023 36.5933 18.819 36.5933C18.5169 36.5933 18.2998 36.4868 18.1582 36.2641C18.0166 36.0413 17.9411 35.7218 17.9411 35.3055L17.9316 35.3151ZM15.7508 34.6955C15.7508 34.7535 15.7603 34.802 15.7792 34.8407C15.798 34.8794 15.8264 34.9182 15.8641 34.9472C15.9019 34.9763 15.9397 35.0053 15.9869 35.0343C16.0341 35.0634 16.0813 35.0828 16.1285 35.1118C16.2701 34.9956 16.3456 34.8601 16.3456 34.7148C16.3456 34.618 16.3173 34.5405 16.2606 34.4921C16.204 34.4437 16.1285 34.4147 16.0435 34.4147C15.9396 34.4147 15.8641 34.4437 15.8075 34.4921C15.7603 34.5502 15.732 34.6083 15.732 34.6858L15.7508 34.6955ZM16.4022 35.9058C16.4022 35.8477 16.3928 35.7993 16.3645 35.7605C16.3362 35.7121 16.3078 35.6734 16.2606 35.6347C16.2229 35.5959 16.1757 35.5669 16.119 35.5378C16.0718 35.5088 16.0152 35.4798 15.9585 35.4507C15.8452 35.5185 15.7697 35.5863 15.7225 35.654C15.6848 35.7315 15.6564 35.7993 15.6564 35.8767C15.6564 35.9736 15.6942 36.051 15.7603 36.1188C15.8264 36.1866 15.9208 36.2156 16.0341 36.2156C16.1379 36.2156 16.2323 36.1866 16.2984 36.1382C16.3645 36.0898 16.4022 36.0123 16.4022 35.9058ZM15.241 35.9542C15.241 35.8767 15.2505 35.7993 15.2694 35.7315C15.2882 35.6637 15.326 35.6056 15.3638 35.5572C15.4015 35.5088 15.4487 35.4604 15.5054 35.412C15.562 35.3732 15.6187 35.3345 15.6848 35.2958C15.5715 35.2183 15.4771 35.1409 15.411 35.044C15.3449 34.9472 15.3071 34.831 15.3071 34.6858C15.3071 34.5986 15.326 34.5115 15.3638 34.4243C15.4015 34.3469 15.4487 34.2791 15.5148 34.221C15.5809 34.1629 15.6564 34.1145 15.7508 34.0854C15.8452 34.0564 15.9491 34.037 16.0718 34.037C16.1757 34.037 16.2795 34.0467 16.3645 34.0758C16.4494 34.1048 16.5344 34.1435 16.5911 34.192C16.6571 34.2404 16.7043 34.3081 16.7421 34.3759C16.7799 34.4534 16.7987 34.5308 16.7987 34.618C16.7987 34.7535 16.7704 34.8697 16.7043 34.9666C16.6383 35.0634 16.5439 35.1505 16.4211 35.228C16.5627 35.3151 16.676 35.4023 16.7515 35.4991C16.8271 35.5959 16.8648 35.7218 16.8648 35.8767C16.8648 35.9833 16.846 36.0801 16.8082 36.1672C16.7704 36.2544 16.7138 36.3221 16.6383 36.3899C16.5627 36.448 16.4778 36.4964 16.3739 36.5352C16.2701 36.5739 16.1662 36.5836 16.0435 36.5836C15.9208 36.5836 15.8169 36.5642 15.7131 36.5352C15.6187 36.5061 15.5337 36.4577 15.4676 36.3996C15.4015 36.3415 15.3449 36.2737 15.3071 36.1963C15.2694 36.1188 15.2505 36.0317 15.2505 35.9252L15.241 35.9542ZM12.6165 36.1672H13.1169V34.7729L13.1735 34.5308L13.0036 34.7342L12.6826 34.9472L12.4844 34.6858L13.3057 34.037H13.57V36.1575H14.061V36.5449H12.6165V36.1575V36.1672Z" fill="white"/>
</svg>
