<svg width="22" height="22" viewBox="0 0 22 22" fill="none" xmlns="http://www.w3.org/2000/svg">
<path d="M7.48056 17.9492H6.98205C2.99402 17.9492 1 16.9521 1 11.9671V6.98205C1 2.99402 2.99402 1 6.98205 1H14.9581C18.9462 1 20.9402 2.99402 20.9402 6.98205V11.9671C20.9402 15.9551 18.9462 17.9492 14.9581 17.9492H14.4596C14.1505 17.9492 13.8514 18.0987 13.662 18.348L12.1665 20.342C11.5085 21.2193 10.4317 21.2193 9.77368 20.342L8.27817 18.348C8.11864 18.1286 7.74975 17.9492 7.48056 17.9492Z" stroke="white" stroke-width="2" stroke-miterlimit="10" stroke-linecap="round" stroke-linejoin="round"/>
<path d="M5.98438 6.98047H15.9545M5.98438 11.9655H11.9664" stroke="white" stroke-width="2" stroke-linecap="round" stroke-linejoin="round"/>
</svg>
