<svg width="42" height="43" viewBox="0 0 42 43" fill="none" xmlns="http://www.w3.org/2000/svg">
<path d="M41 21.7754C41 27.8831 38.2615 33.3523 33.9462 37.0139C30.4615 39.9831 25.9385 41.7754 21 41.7754C15.7385 41.7754 10.9538 39.7446 7.38462 36.4139C3.45385 32.7677 1 27.56 1 21.7754C1 10.7369 9.95385 1.77539 21 1.77539C32.0462 1.77539 41 10.7369 41 21.7754Z" stroke="white" stroke-width="2"/>
<path d="M33.9522 37.0126C30.4676 39.9818 25.9445 41.7741 21.006 41.7741C15.7445 41.7741 10.9599 39.7434 7.39062 36.4126C7.4137 36.2818 7.43678 36.1511 7.46755 36.0203C8.47524 31.5357 10.7214 28.7511 14.1522 27.6818C14.6752 27.5203 15.2214 27.4587 15.7522 27.4587C19.0137 27.4357 22.2752 27.4434 25.5368 27.4511C29.5752 27.4587 33.2445 31.5818 33.9291 36.8587C33.9368 36.9126 33.9445 36.9587 33.9522 37.0126Z" stroke="white" stroke-width="2"/>
<path d="M13.9141 20.0281C13.9141 24.3358 17.4525 27.1512 20.9602 27.0897H20.9756H20.991C24.691 27.1589 28.0448 24.1281 28.0833 20.105C28.1294 16.0358 24.7833 12.9666 21.0371 12.9435C17.4064 12.9204 13.9141 15.7589 13.9141 20.0204V20.0281Z" stroke="white" stroke-width="2"/>
</svg>
