<svg width="15" height="18" viewBox="0 0 15 18" fill="none" xmlns="http://www.w3.org/2000/svg">
<path d="M6.34643 18C4.98989 18 3.63236 18 2.27582 17.998C0.937971 17.997 0.00245929 17.0615 0.00147557 15.7237C-0.000491857 11.3914 -0.000491857 6.86632 0.00147557 2.27238C0.00147557 1.10078 0.727456 0.220351 1.84987 0.028527C1.99448 0.0039342 2.14991 0.0039342 2.29943 0.0039342H5.90573C7.06946 0.0039342 8.23319 0.00393486 9.39693 0C9.85337 0 10.2105 0.148541 10.5282 0.469232C11.8385 1.78938 13.0131 2.96393 14.1207 4.05979C14.4522 4.38737 14.6047 4.75823 14.6037 5.22647C14.5998 6.50137 14.5998 7.79692 14.6008 9.05017V12.0682C14.6018 13.286 14.6027 14.5029 14.6008 15.7198C14.5988 16.8225 13.9712 17.6675 12.9609 17.9262C12.7789 17.9725 12.5724 17.9961 12.3304 17.9961C10.3354 17.999 8.34042 18 6.34643 18ZM2.29943 0.9483C1.45147 0.9483 0.94584 1.4559 0.94584 2.30484C0.94584 6.76795 0.94584 11.2301 0.94584 15.6932C0.94584 16.5451 1.45049 17.0537 2.29648 17.0537C3.96486 17.0537 5.63422 17.0537 7.30358 17.0537C8.97295 17.0537 10.6413 17.0537 12.3107 17.0537C13.1537 17.0537 13.6574 16.551 13.6574 15.7089C13.6574 12.3387 13.6574 8.96852 13.6574 5.59733C13.6574 5.54716 13.6544 5.49601 13.6505 5.44092L13.6456 5.36321C13.6407 5.27468 13.5679 5.20483 13.4784 5.20483H13.2147C12.9678 5.20483 12.7199 5.20483 12.473 5.20581C12.2261 5.20581 11.9792 5.2068 11.7323 5.2068C11.3958 5.2068 11.0584 5.20582 10.722 5.20188C9.95469 5.19303 9.39299 4.62641 9.38807 3.85518C9.38512 3.45874 9.38611 3.06329 9.38709 2.66685V2.13761V1.11356C9.38709 1.02109 9.31233 0.946332 9.21986 0.946332H5.27517C4.28358 0.946332 3.29102 0.946332 2.29943 0.946332V0.9483ZM10.5007 1.933C10.479 1.933 10.4574 1.93693 10.4367 1.94579C10.3747 1.97136 10.3334 2.03235 10.3334 2.10023V2.55175C10.3334 2.98852 10.3324 3.43611 10.3354 3.88272C10.3374 4.10701 10.4908 4.25751 10.72 4.2585C11.0004 4.25948 11.2798 4.25948 11.5572 4.25948H12.4937C12.5615 4.25948 12.6225 4.21817 12.6481 4.15619C12.6737 4.09323 12.6599 4.02142 12.6117 3.9742L10.6187 1.98218C10.5862 1.94972 10.5439 1.933 10.5007 1.933Z" fill="#1F5CB8"/>
<path d="M6.92956 11.1827C5.94191 11.1827 4.95524 11.1827 3.96759 11.1827C3.64985 11.1827 3.43639 11.0095 3.42261 10.741C3.41573 10.5983 3.45705 10.4744 3.54164 10.3839C3.6292 10.2914 3.75413 10.2412 3.90464 10.2403C4.16335 10.2373 4.42305 10.2373 4.68177 10.2373C4.85982 10.2373 5.7609 10.2383 5.7609 10.2383H9.18915C9.68396 10.2383 10.1797 10.2383 10.6746 10.2393C10.948 10.2393 11.1448 10.3927 11.1762 10.6278C11.2136 10.9043 11.0474 11.1286 10.7719 11.1728C10.7346 11.1787 10.6923 11.1817 10.6401 11.1817H6.92956V11.1827Z" fill="#1F5CB8"/>
<path d="M5.34704 8.19535C4.87092 8.19535 4.39578 8.19535 3.91967 8.19338C3.73768 8.19338 3.57438 8.1078 3.48388 7.96713C3.40125 7.83728 3.39141 7.67988 3.45732 7.53528C3.54684 7.3405 3.69538 7.25 3.92754 7.25C4.30135 7.25 4.67319 7.25 5.04602 7.25H8.7743C9.40387 7.25 10.0325 7.25 10.662 7.25C10.9542 7.25 11.1618 7.42215 11.1795 7.67792C11.1893 7.82252 11.149 7.94745 11.0614 8.04091C10.9699 8.13928 10.8322 8.19338 10.6719 8.19338C10.2381 8.19437 9.80424 8.19437 9.37043 8.19437H7.26626H5.34704V8.19535Z" fill="#1F5CB8"/>
<path d="M5.81993 14.1617C5.81403 14.1617 5.80813 14.1607 5.80222 14.1607H4.68571C4.41912 14.1617 4.15253 14.1607 3.88595 14.1587C3.67445 14.1567 3.50427 14.0328 3.44131 13.8351C3.37934 13.6423 3.44426 13.4308 3.59477 13.3324C3.69707 13.2655 3.81807 13.2232 3.91054 13.2232C4.55192 13.2183 5.23265 13.2153 5.99011 13.2153C6.56165 13.2153 7.13319 13.2163 7.70571 13.2193C7.94869 13.2193 8.13363 13.3599 8.18675 13.5852C8.2379 13.8006 8.14248 14.0121 7.95557 14.0997C7.87786 14.1361 7.77359 14.1567 7.65948 14.1587C7.36043 14.1626 7.06138 14.1626 6.76233 14.1626H5.82091L5.81993 14.1617Z" fill="#1F5CB8"/>
</svg>
