<svg width="22" height="22" viewBox="0 0 22 22" fill="none" xmlns="http://www.w3.org/2000/svg">
<path d="M14.2016 14.1316C13.4835 14.8459 12.631 15.4125 11.6928 15.7991C10.7545 16.1856 9.74889 16.3846 8.73333 16.3846C6.68233 16.3846 4.71532 15.5742 3.26504 14.1316C1.81476 12.689 1 10.7324 1 8.69231C1 6.65218 1.81476 4.69561 3.26504 3.25302C4.71532 1.81044 6.68233 1 8.73333 1C9.74889 1 10.7545 1.19897 11.6928 1.58554C12.631 1.97212 13.4835 2.53873 14.2016 3.25302C14.9197 3.96732 15.4894 4.81532 15.878 5.74859C16.2666 6.68186 16.4667 7.68214 16.4667 8.69231C16.4667 9.70248 16.2666 10.7028 15.878 11.636C15.4894 12.5693 14.9197 13.4173 14.2016 14.1316ZM14.2016 14.1316L21 21" stroke="white" stroke-width="2" stroke-linecap="round" stroke-linejoin="round"/>
</svg>
