<svg width="18" height="17" viewBox="0 0 18 17" fill="none" xmlns="http://www.w3.org/2000/svg">
<path d="M4.43923 16.1379C3.70521 16.1379 2.97119 16.1379 2.23718 16.1362C1.13966 16.1335 0.302037 15.4757 0.0526813 14.4191C0.0403891 14.3675 0.0272178 14.315 0.0131696 14.2633L0 14.2117V5.47248C0.00790211 5.40305 0.0105374 5.37723 0.0122935 5.36388C0.0128788 5.35617 0.0140476 5.34667 0.0158036 5.3354C0.187894 4.10347 1.29155 3.11187 2.52867 3.07894C2.87198 3.07003 3.24162 3.06558 3.72804 3.06558C3.91945 3.06558 4.11085 3.06558 4.30226 3.06647C4.49367 3.06647 4.68595 3.06736 4.87736 3.06736H5.32163C5.40416 3.06736 5.47089 2.99971 5.47089 2.91604V2.406C5.47089 2.0455 5.47002 1.69212 5.47089 1.33874C5.47353 0.539414 5.97224 0.017802 6.74138 0.010681C7.50437 0.00356006 8.26912 0 9.01455 0C9.75998 0 10.523 0.00356006 11.2596 0.010681C12.027 0.017802 12.5248 0.540304 12.5275 1.34053C12.5275 1.52745 12.5275 1.71349 12.5275 1.90041V2.91515C12.5275 2.99882 12.5942 3.06647 12.6767 3.06647H12.8857C13.1017 3.06647 13.3177 3.06647 13.5346 3.06647C13.7505 3.06647 13.9665 3.06558 14.1825 3.06558C14.5838 3.06558 14.9095 3.06736 15.2072 3.07092C15.4258 3.07359 15.6813 3.08339 15.9175 3.14035C17.1774 3.44478 17.994 4.488 17.9966 5.79826C18.0019 8.25589 18.001 10.8399 17.994 13.9313C17.994 14.1307 17.9641 14.3443 17.9071 14.5508C17.6454 15.5131 16.7964 16.1353 15.7445 16.1362C14.5689 16.1362 13.3923 16.137 12.2167 16.137H7.615H4.43923V16.1379ZM0.923668 8.73656C0.894693 8.73656 0.865719 8.74546 0.841134 8.76237C0.799868 8.79086 0.774407 8.83803 0.774407 8.88788V13.7987C0.774407 14.7689 1.34248 15.3484 2.29425 15.3484H7.25589C10.069 15.3484 12.8813 15.3484 15.6945 15.3466C15.8385 15.3466 16.0088 15.3404 16.1739 15.2977C16.8289 15.125 17.2205 14.5953 17.2222 13.8797C17.224 12.743 17.224 11.6063 17.2231 10.4705V8.88877C17.2231 8.83892 17.1985 8.79263 17.159 8.76415C17.1335 8.74635 17.1037 8.73745 17.0738 8.73745C17.0563 8.73745 17.0387 8.74101 17.022 8.74724C16.9439 8.77661 16.8675 8.80777 16.7929 8.83892C16.6383 8.90212 16.4926 8.96265 16.3442 9.00003C15.6075 9.18874 14.8568 9.373 14.1307 9.55191C13.8296 9.62579 13.5284 9.69967 13.2273 9.77444C12.7066 9.90351 12.1859 10.0326 11.6574 10.1643L10.9734 10.3343C10.9067 10.3512 10.8593 10.4118 10.8593 10.4812C10.8593 10.5328 10.8593 10.5845 10.861 10.6352C10.8628 10.7429 10.8636 10.8444 10.8584 10.9458C10.8241 11.5912 10.379 12.0345 9.7512 12.0496C9.48165 12.0558 9.23142 12.0585 8.98645 12.0585C8.7292 12.0585 8.47809 12.0549 8.24014 12.0478C7.90474 12.038 7.46135 11.9161 7.25062 11.3909C7.18038 11.2156 7.16634 10.9993 7.15316 10.7901C7.14965 10.734 7.14614 10.6788 7.14175 10.6236C7.13121 10.4892 7.09082 10.3459 6.87747 10.2934L6.36207 10.1679C5.55957 9.97294 4.72985 9.77177 3.91769 9.55814C3.62356 9.4807 3.3224 9.41216 3.03178 9.3454C2.34868 9.18874 1.64276 9.02674 0.982496 8.74813C0.964058 8.74012 0.944742 8.73656 0.925426 8.73656H0.923668ZM8.29283 9.0481C8.17429 9.0481 8.08035 9.08282 8.01274 9.15135C7.94601 9.219 7.91264 9.31425 7.91264 9.43263C7.91352 9.91508 7.91352 10.3984 7.91264 10.8809C7.91264 11.0001 7.94601 11.0945 8.01274 11.1621C8.07947 11.2307 8.17342 11.2645 8.29283 11.2645H9.70379C9.8232 11.2645 9.91803 11.2298 9.98475 11.1613C10.0515 11.0936 10.084 10.9984 10.0831 10.88C10.0813 10.7109 10.0822 10.5417 10.0831 10.3726V10.1563V9.93644C10.0831 9.7691 10.0831 9.60087 10.0831 9.43353C10.084 9.31425 10.0506 9.21989 9.98388 9.15135C9.91715 9.08282 9.82232 9.0481 9.70379 9.0481C9.46848 9.0481 9.23318 9.0481 8.99787 9.0481C8.76256 9.0481 8.52725 9.0481 8.29195 9.0481H8.29283ZM3.00807 3.85334C2.88427 3.85334 2.76047 3.85423 2.63667 3.85779C1.59008 3.88895 0.79021 4.71409 0.775284 5.77779C0.770015 6.11604 0.771771 6.44716 0.775284 6.813C0.780552 7.55269 1.1941 8.07787 1.91143 8.255C2.73149 8.45706 3.55068 8.66001 4.37074 8.86296L5.65264 9.18073C5.92834 9.24927 6.20403 9.31692 6.48061 9.38457L6.9363 9.49672C6.94771 9.49939 6.96 9.50117 6.97142 9.50117C7.03639 9.50117 7.09522 9.45845 7.11453 9.39258C7.11804 9.38101 7.12156 9.37032 7.12419 9.36142C7.13122 9.33917 7.13912 9.31603 7.14263 9.28843C7.23306 8.65111 7.66592 8.26657 8.30073 8.26123C8.50091 8.25945 8.70198 8.25856 8.90217 8.25856C9.14274 8.25856 9.38244 8.25945 9.62301 8.26034H9.6915C10.0032 8.26212 10.2569 8.35113 10.4685 8.5345C10.703 8.73745 10.8329 9.00537 10.8636 9.35163C10.8672 9.39169 10.8865 9.42907 10.9172 9.45489C10.9444 9.47714 10.9778 9.4896 11.012 9.4896C11.0173 9.4896 11.0217 9.4896 11.027 9.4896C11.041 9.48782 11.0533 9.48693 11.0647 9.48604C11.0954 9.48426 11.127 9.48159 11.1613 9.47358L12.1605 9.22612C13.4907 8.89767 14.8208 8.56832 16.1502 8.23631C16.7911 8.07609 17.2003 7.5607 17.2169 6.89133C17.2275 6.48989 17.2266 6.09111 17.2152 5.70569C17.2038 5.31047 17.0756 4.94819 16.8359 4.62953C16.4469 4.11326 15.9017 3.85156 15.2159 3.85156C13.2352 3.85334 11.257 3.85423 9.27883 3.85423H3.4778C3.39966 3.85423 3.32064 3.85423 3.2425 3.85334C3.16348 3.85334 3.08446 3.85334 3.00544 3.85334H3.00807ZM9.00577 0.79577C8.26122 0.79577 7.51666 0.795769 6.77123 0.797549C6.41476 0.797549 6.24794 0.968453 6.24618 1.33429C6.24442 1.8114 6.2453 2.28851 6.24618 2.76561C6.24618 2.80656 6.25145 2.84394 6.25672 2.88044C6.25847 2.89468 6.26023 2.90892 6.26198 2.92405C6.27076 3.0006 6.33398 3.05846 6.41037 3.05846H11.6003C11.6828 3.05846 11.7496 2.99081 11.7496 2.90714V2.43716C11.7496 2.06241 11.7496 1.69568 11.7496 1.32806C11.7478 0.966673 11.5792 0.79755 11.2192 0.79666C10.4817 0.79577 9.74418 0.794879 9.00665 0.794879L9.00577 0.79577Z" fill="#1F5CB8"/>
</svg>
